<?xml version="1.0" standalone="no"?>
<!DOCTYPE svg PUBLIC "-//W3C//DTD SVG 20010904//EN"
 "http://www.w3.org/TR/2001/REC-SVG-20010904/DTD/svg10.dtd">
<svg version="1.0" xmlns="http://www.w3.org/2000/svg"
 width="500.000000pt" height="500.000000pt" viewBox="0 0 500.000000 500.000000"
 preserveAspectRatio="xMidYMid meet">
<metadata>
Created by potrace 1.14, written by Peter Selinger 2001-2017
</metadata>
<g transform="translate(0.000000,500.000000) scale(0.100000,-0.100000)"
fill="#000000" stroke="none">
<path d="M0 2500 l0 -2500 2500 0 2500 0 0 2500 0 2500 -2500 0 -2500 0 0
-2500z m1861 811 c16 -16 29 -37 29 -46 0 -24 -27 -72 -45 -79 -86 -33 -154
65 -90 129 33 33 70 32 106 -4z m1003 7 c14 -20 16 -95 16 -620 0 -529 -2
-598 -16 -612 -18 -19 -38 -20 -65 -6 -15 9 -19 22 -19 70 l0 59 -53 -53 c-72
-72 -142 -99 -257 -99 -104 1 -178 26 -244 84 -143 126 -185 385 -95 580 38
82 104 149 184 186 52 24 72 28 155 28 88 0 101 -3 162 -33 36 -18 82 -50 102
-72 20 -22 38 -40 41 -40 3 0 5 118 5 263 0 191 3 266 12 275 19 19 55 14 72
-10z m1740 -4 c19 -18 19 -35 5 -143 -6 -45 -9 -84 -7 -87 3 -2 44 14 93 36
118 54 155 52 155 -11 0 -37 -17 -47 -106 -64 -141 -27 -136 -15 -50 -105 42
-44 76 -89 76 -99 0 -30 -29 -52 -62 -49 -27 3 -36 14 -81 96 -28 50 -53 92
-56 92 -3 0 -26 -39 -50 -86 -48 -94 -77 -122 -110 -104 -18 9 -41 40 -41 54
0 3 34 43 74 88 48 53 71 85 63 89 -7 3 -48 12 -92 18 -96 15 -125 31 -125 69
0 64 40 67 154 10 47 -23 88 -40 90 -37 3 3 1 32 -4 65 -15 90 -15 151 0 169
16 19 54 19 74 -1z m-4234 -133 c5 -11 10 -76 10 -145 l0 -126 95 0 c94 0 95
0 101 -27 12 -48 -4 -58 -105 -61 l-91 -3 0 -309 0 -309 24 -28 c23 -26 29
-28 108 -28 93 0 108 -6 108 -40 0 -37 -34 -50 -130 -49 -89 0 -128 13 -163
52 -42 46 -46 83 -47 405 l0 307 -79 0 c-87 0 -105 10 -99 57 3 28 4 28 88 33
l85 5 3 130 c1 72 4 136 7 143 7 20 73 15 85 -7z m874 -275 c29 -14 72 -45 94
-68 l42 -42 0 50 c0 55 12 74 46 74 57 0 54 24 54 -426 l0 -414 -27 -6 c-43
-11 -57 6 -63 75 l-5 62 -37 -45 c-25 -29 -61 -56 -105 -77 -60 -30 -74 -33
-152 -33 -108 1 -180 27 -250 90 -83 75 -131 202 -131 349 1 224 100 382 273
430 78 22 194 14 261 -19z m2390 0 c29 -14 72 -45 94 -68 l42 -42 0 50 c0 55
12 74 46 74 57 0 54 24 54 -426 l0 -414 -27 -6 c-43 -11 -57 6 -63 75 l-5 62
-37 -45 c-25 -29 -61 -56 -105 -77 -60 -30 -74 -33 -152 -33 -108 1 -180 27
-250 90 -83 75 -131 202 -131 349 1 224 100 382 273 430 78 22 194 14 261 -19z
m-1786 2 c9 -9 12 -109 12 -390 l0 -378 33 0 c39 0 57 -15 57 -47 0 -33 -34
-43 -145 -43 -117 0 -145 9 -145 49 0 32 14 41 66 41 l34 0 0 285 c0 157 -2
285 -5 285 -2 0 -14 -18 -25 -39 -24 -47 -34 -55 -64 -47 -44 11 -39 34 35
167 68 124 72 129 103 129 18 0 37 -5 44 -12z m2312 -688 c19 0 50 -45 50 -73
0 -41 -15 -63 -51 -76 -39 -14 -85 8 -100 47 -19 49 35 121 79 106 8 -2 18 -4
22 -4z"/>
<path d="M2407 2850 c-88 -22 -144 -73 -191 -170 -29 -61 -31 -72 -30 -180 0
-95 4 -125 22 -171 50 -125 141 -189 272 -189 131 0 222 63 271 186 19 49 23
78 24 174 0 109 -2 119 -31 180 -37 76 -83 126 -141 152 -50 22 -144 31 -196
18z"/>
<path d="M1027 2850 c-121 -31 -195 -126 -217 -280 -12 -84 -7 -136 21 -230
17 -60 52 -121 62 -110 2 3 79 138 170 300 l166 295 -24 13 c-33 17 -131 23
-178 12z"/>
<path d="M1133 2482 c-89 -158 -165 -295 -168 -303 -15 -38 176 -54 250 -20
145 66 216 302 149 496 -17 48 -54 115 -64 115 -3 0 -78 -130 -167 -288z"/>
<path d="M3417 2850 c-121 -31 -195 -126 -217 -280 -12 -84 -7 -135 21 -234
17 -57 29 -78 72 -120 60 -60 103 -76 203 -76 114 1 193 52 241 156 88 193 31
454 -116 529 -57 29 -145 39 -204 25z"/>
</g>
</svg>
