<?xml version="1.0" standalone="no"?>
<!DOCTYPE svg PUBLIC "-//W3C//DTD SVG 20010904//EN"
 "http://www.w3.org/TR/2001/REC-SVG-20010904/DTD/svg10.dtd">
<svg version="1.0" xmlns="http://www.w3.org/2000/svg"
 width="500.000000pt" height="500.000000pt" viewBox="0 0 500.000000 500.000000"
 preserveAspectRatio="xMidYMid meet">
<metadata>
Created by potrace 1.14, written by Peter Selinger 2001-2017
</metadata>
<g transform="translate(0.000000,500.000000) scale(0.100000,-0.100000)"
fill="#000000" stroke="none">
<path d="M0 2500 l0 -2500 2500 0 2500 0 0 2500 0 2500 -2500 0 -2500 0 0
-2500z m2014 729 c19 -15 26 -30 26 -54 0 -37 -37 -75 -72 -75 -27 0 -68 45
-68 75 0 30 41 75 68 75 11 0 31 -9 46 -21z m910 5 c14 -14 16 -79 16 -563 0
-603 2 -586 -58 -565 -24 8 -27 15 -30 62 l-3 53 -54 -50 c-73 -66 -130 -85
-244 -79 -100 5 -167 35 -228 101 -143 159 -131 465 23 607 64 58 132 83 224
84 91 1 159 -25 225 -86 l55 -50 0 240 c0 219 2 242 18 251 24 15 38 13 56 -5z
m1507 6 c22 -12 25 -58 9 -154 -5 -33 -8 -61 -6 -63 1 -2 43 15 91 38 74 34
93 39 112 30 16 -8 23 -19 23 -40 0 -38 -12 -46 -90 -60 -36 -6 -78 -14 -93
-17 l-29 -6 71 -73 c39 -40 71 -80 71 -88 0 -25 -30 -48 -59 -45 -21 2 -34 18
-71 85 -25 45 -48 83 -51 83 -3 0 -24 -36 -48 -80 -49 -92 -70 -109 -107 -85
-40 26 -30 54 41 125 36 35 65 67 65 71 0 4 -38 14 -85 23 -47 8 -94 20 -105
26 -44 24 -7 100 42 85 13 -4 54 -23 92 -42 37 -19 69 -33 71 -31 1 2 -2 47
-8 100 -13 120 3 150 64 118z m-3777 -120 c26 -10 26 -10 26 -134 l0 -125 88
-3 87 -3 0 -35 0 -35 -87 -3 -88 -3 0 -269 c0 -148 4 -280 10 -294 14 -37 47
-50 130 -51 72 0 75 -1 78 -24 6 -39 -22 -51 -111 -51 -63 0 -87 5 -118 22
-70 39 -74 55 -77 380 l-3 287 -77 3 -77 3 0 35 0 35 78 3 77 3 0 124 c0 108
2 125 18 134 21 13 16 13 46 1z m812 -266 c29 -14 68 -42 88 -64 l36 -40 0 48
c0 52 12 72 45 72 44 0 45 -5 45 -386 0 -393 0 -394 -55 -380 -23 6 -25 11
-25 61 0 30 -3 55 -6 55 -4 0 -24 -18 -46 -41 -60 -62 -127 -89 -220 -89 -177
0 -290 92 -333 271 -48 204 25 416 169 487 94 48 210 50 302 6z m2157 -1 c35
-16 72 -42 93 -66 l34 -41 0 57 c0 53 2 57 27 63 59 15 58 21 61 -376 2 -381
1 -390 -42 -390 -34 0 -46 20 -46 77 l0 53 -42 -46 c-69 -75 -105 -89 -228
-89 -90 0 -111 3 -148 23 -137 73 -200 206 -190 401 7 119 33 192 94 260 97
108 247 137 387 74z m-1614 13 c9 -10 12 -107 11 -350 l0 -336 30 0 c44 0 70
-17 70 -45 0 -35 -27 -45 -127 -45 -107 0 -130 6 -139 33 -8 24 26 57 57 57
18 0 19 11 19 238 l0 237 -24 -30 c-23 -29 -24 -29 -50 -11 -32 21 -31 28 30
134 24 42 44 83 44 91 0 17 29 40 51 41 9 0 22 -6 28 -14z m2071 -626 c27 -14
41 -62 26 -91 -16 -33 -53 -50 -84 -38 -55 21 -68 74 -27 114 25 26 54 31 85
15z"/>
<path d="M2463 2785 c-128 -64 -187 -251 -134 -425 38 -125 134 -200 254 -200
151 0 256 119 265 301 5 103 -12 174 -60 245 -68 100 -212 135 -325 79z"/>
<path d="M1236 2795 c-52 -18 -110 -77 -138 -139 -20 -44 -23 -67 -23 -171 0
-113 2 -123 30 -180 17 -33 36 -60 42 -60 7 0 74 108 149 240 188 332 171 293
130 310 -44 19 -138 19 -190 0z"/>
<path d="M1517 2713 c-28 -46 -297 -526 -297 -528 0 -8 76 -25 108 -25 101 0
192 59 231 150 44 103 43 255 -3 355 -25 55 -31 62 -39 48z"/>
<path d="M3373 2785 c-37 -19 -61 -41 -86 -78 -46 -67 -60 -122 -60 -227 2
-206 119 -335 288 -317 148 15 235 135 235 323 0 109 -31 198 -89 255 -74 75
-190 92 -288 44z"/>
</g>
</svg>
